<?xml version="1.0" encoding="UTF-8" standalone="no"?>
<!DOCTYPE svg PUBLIC "-//W3C//DTD SVG 1.1//EN" "http://www.w3.org/Graphics/SVG/1.1/DTD/svg11.dtd">
<svg width="100%" height="100%" viewBox="0 0 364 211" version="1.1" xmlns="http://www.w3.org/2000/svg" xmlns:xlink="http://www.w3.org/1999/xlink" xml:space="preserve" xmlns:serif="http://www.serif.com/" style="fill-rule:evenodd;clip-rule:evenodd;stroke-linejoin:round;stroke-miterlimit:2;">
    <g id="Artboard1" transform="matrix(0.390689,0,0,0.250684,39.9538,-326.821)">
        <rect x="-102.265" y="1303.72" width="931.686" height="839.505" style="fill:none;"/>
        <clipPath id="_clip1">
            <rect x="-102.265" y="1303.72" width="931.686" height="839.505"/>
        </clipPath>
        <g clip-path="url(#_clip1)">
            <g transform="matrix(1.21075,0,0,2.09415,-16.0403,-1773.15)">
                <g transform="matrix(2.31851,0,0,2.08912,-2373.27,4.3829)">
                    <path d="M1159.04,781.729L1149.15,775.21L1143.73,785.572L1131.97,783.537L1127.45,789.415L1093.09,786.25L1083.82,778.79L1084.95,783.085L1073.42,777.208L1074.33,783.085C1074.33,783.085 1062.58,776.982 1062.58,772.234C1062.58,767.487 1058.28,778.564 1058.28,778.564L1057.07,780.689C1057.07,780.689 1043.09,773.189 1042.35,759.207C1041.61,745.226 1038.46,744.67 1038.46,744.67L1037.66,757.988C1037.66,757.988 1045.77,775.662 1047.14,776.648C1048.5,777.634 1042.21,775.131 1042.21,775.131C1042.21,775.131 1027.76,761.857 1026.24,756.85C1024.72,751.844 1021.92,743.273 1021.92,743.273L1020.93,754.006L1026.46,764.253L1038.07,776.496L1034.51,775.775L1021.06,767.55L1013.04,758.481L1008.76,749.114L1008.68,758.14L1013.87,768.023L1024.26,775.237L1036.25,780.857L1024.27,778.127C1024.27,778.127 1010.39,772.552 1007.43,768.342C1004.47,764.132 998.935,755.182 998.935,755.182L1000.53,767.432L1013.23,779.694L1031.4,784.536L1016.65,783.929L1003.37,780.857L989.037,773.917L996.546,782.526L1007.2,787.267L1024.99,790.983L999.848,791.082L1008.53,795.383L1020.89,795.648L1008.73,798.837L1016.53,802.172L1015.31,804.302L1024.57,807.559L1031.12,817.166L1049.76,810.743L1094.86,818.615L1116.38,821.87L1134.04,817.05" style="fill:white;"/>
                </g>
                <g transform="matrix(-2.31851,0,0,2.08912,3000.34,4.3829)">
                    <path d="M1159.04,781.729L1149.15,775.21L1143.73,785.572L1131.97,783.537L1127.45,789.415L1093.09,786.25L1083.82,778.79L1084.95,783.085L1073.42,777.208L1074.33,783.085C1074.33,783.085 1062.58,776.982 1062.58,772.234C1062.58,767.487 1058.28,778.564 1058.28,778.564L1057.07,780.689C1057.07,780.689 1043.09,773.189 1042.35,759.207C1041.61,745.226 1038.46,744.67 1038.46,744.67L1037.66,757.988C1037.66,757.988 1045.77,775.662 1047.14,776.648C1048.5,777.634 1042.21,775.131 1042.21,775.131C1042.21,775.131 1027.76,761.857 1026.24,756.85C1024.72,751.844 1021.92,743.273 1021.92,743.273L1020.93,754.006L1026.46,764.253L1038.07,776.496L1034.51,775.775L1021.06,767.55L1013.04,758.481L1008.76,749.114L1008.68,758.14L1013.87,768.023L1024.26,775.237L1036.25,780.857L1024.27,778.127C1024.27,778.127 1010.39,772.552 1007.43,768.342C1004.47,764.132 998.935,755.182 998.935,755.182L1000.53,767.432L1013.23,779.694L1031.4,784.536L1016.65,783.929L1003.37,780.857L989.037,773.917L996.546,782.526L1007.2,787.267L1024.99,790.983L999.848,791.082L1008.53,795.383L1020.89,795.648L1008.73,798.837L1016.53,802.172L1015.31,804.302L1024.57,807.559L1031.12,817.166L1049.76,810.743L1094.86,818.615L1116.38,821.87L1134.04,817.05" style="fill:white;"/>
                </g>
                <g transform="matrix(2.37891,0,0,2.14354,-1452.3,-45.2783)">
                    <path d="M742.467,828.882L750.713,821.887L766.628,849.375L742.519,853.558L718.306,849.375L734.22,821.887L742.467,828.882Z" style="fill:white;"/>
                </g>
            </g>
        </g>
    </g>
</svg>
