<?xml version="1.0" encoding="UTF-8" standalone="no"?>
<!DOCTYPE svg PUBLIC "-//W3C//DTD SVG 1.1//EN" "http://www.w3.org/Graphics/SVG/1.1/DTD/svg11.dtd">
<svg width="100%" height="100%" viewBox="0 0 330 200" version="1.1" xmlns="http://www.w3.org/2000/svg" xmlns:xlink="http://www.w3.org/1999/xlink" xml:space="preserve" xmlns:serif="http://www.serif.com/" style="fill-rule:evenodd;clip-rule:evenodd;stroke-linejoin:round;stroke-miterlimit:2;">
    <g transform="matrix(1,0,0,1,-7.10543e-15,-58.8542)">
        <g id="Artboard1" transform="matrix(0.354196,0,0,0.238236,36.2219,-251.737)">
            <rect x="-102.265" y="1303.72" width="931.686" height="839.505" style="fill:none;"/>
            <g transform="matrix(-6.60448,0,0,8.62903,1395.03,-1679.59)">
                <path d="M155.874,426.57L134.903,389.579L119.025,382.389L113.033,373.701L130.709,376.098L109.438,368.309L103.746,361.119L141.195,370.705L156.174,411.238L171.153,370.705L208.602,361.119L202.91,368.309L181.639,376.098L199.315,373.701L193.323,382.389L177.445,389.579L156.474,426.57L156.474,427.627L156.174,427.099L155.874,427.627L155.874,426.57ZM156.145,363.504L156.146,363.457L156.176,363.481L156.207,363.457L156.207,363.504L164.995,370.231L158.32,379.949L165.29,377.986C165.29,377.986 158.325,389.651 156.396,393.751L156.403,394.834C156.359,394.683 156.282,394.481 156.176,394.237C156.071,394.481 155.994,394.683 155.95,394.834L155.956,393.751C154.028,389.651 147.063,377.986 147.063,377.986L154.033,379.949L147.358,370.231L156.145,363.504Z" style="fill:white;"/>
            </g>
        </g>
    </g>
</svg>
